<?xml version="1.0" encoding="UTF-8"?>
<svg id="Camada_2" data-name="Camada 2" xmlns="http://www.w3.org/2000/svg" viewBox="0 0 550.8 321.27">
  <defs>
    <style>
      .cls-1 {
        fill: #360f11;
      }
    </style>
  </defs>
  <g id="Camada_1-2" data-name="Camada 1">
    <g>
      <g>
        <path class="cls-1" d="M48.58,77.28L0,0h18.76l38.45,63.77h.38L96.59,0h18.01l-49.14,77.65v56.46h-16.88v-56.83Z"/>
        <path class="cls-1" d="M168.43,120.6h-.19c-5.81,7.5-15.75,15.38-32.26,15.38-18.38,0-32.82-8.63-32.82-27.01,0-22.88,18.01-27.57,42.2-31.32,13.69-2.06,23.26-3.38,23.26-13.88s-7.88-17.07-21.76-17.07c-15.75,0-23.63,6.75-24.2,21.38h-14.63c.56-18.76,12.94-32.82,38.64-32.82,20.63,0,35.82,7.69,35.82,30.76v46.14c0,7.88,1.88,12.19,10.32,10.32h.56v11.07c-1.88.75-4.31,1.5-8.25,1.5-9.94,0-15.19-4.5-16.69-14.44ZM168.8,98.28v-16.5c-5.06,3.19-13.88,5.63-22.13,7.13-15.19,2.81-27.38,5.44-27.38,19.69,0,12.94,10.13,15.75,20.07,15.75,20.26,0,29.45-14.82,29.45-26.07Z"/>
        <path class="cls-1" d="M219.82,53.27h.38c5.81-9.38,15.94-17.26,28.88-17.26,2.81,0,4.31.38,6.19,1.13v14.63h-.56c-2.25-.75-3.75-.94-6.75-.94-15.01,0-28.13,11.25-28.13,29.45v53.83h-15.19V37.14h15.19v16.13Z"/>
        <path class="cls-1" d="M259.76,85.9c0-32.26,18.57-51.02,42.58-51.02,13.69,0,24.2,6.75,30.38,15.94h.38V0h15.19v134.11h-15.19v-11.82h-.38c-7.32,9.38-16.32,14.63-30.01,14.63-26.45,0-42.95-19.88-42.95-51.02ZM334.04,86.09c0-22.51-10.88-38.26-30.95-38.26-18.38,0-27.76,16.51-27.76,38.26s9.38,38.08,27.95,38.08c21.57,0,30.76-16.13,30.76-38.08Z"/>
        <path class="cls-1" d="M363.48,85.72c0-28.13,18.38-51.02,45.95-51.02,29.07,0,44.64,22.51,44.64,54.58h-75.02c1.12,19.69,11.82,34.7,31.32,34.7,14.07,0,23.45-6.75,26.82-19.88h14.82c-4.5,20.82-19.69,32.64-41.64,32.64-29.63,0-46.89-22.88-46.89-51.02ZM379.42,77.84h58.33c-.94-19.32-10.88-31.13-28.32-31.13s-27.76,13.5-30.01,31.13Z"/>
        <path class="cls-1" d="M484.08,49.89h.38c6.94-9.19,16.69-15,30.76-15,20.26,0,32.63,11.07,32.63,31.13v68.08h-15.19v-66.77c0-12.57-8.25-19.69-21.94-19.69-15.38,0-26.63,10.88-26.63,26.82v59.64h-15.19V37.14h15.19v12.75Z"/>
      </g>
      <g>
        <path class="cls-1" d="M344.49,316.96c0-1.12,4.13-13.13,5.06-15.57l41.08-114.6-12.38-.75v-2.06h27.95l-44.83,126.23.56.38c6.56-2.25,18.76-15.57,24.38-23.45l1.5,1.12c-6.75,12.75-24.76,33.01-38.08,33.01-3.38,0-5.25-1.88-5.25-4.31Z"/>
        <path class="cls-1" d="M388.38,308.9c0-32.07,36.57-77.84,60.39-77.84,5.25,0,9,3.19,10.69,6.19l1.12-3,13.5-4.13h1.12l-21.19,55.14c-3,8.07-7.5,21.38-6.75,23.45,4.5-1.12,15.94-13.13,21.01-18.57l1.31,1.31c-5.06,8.07-24.95,29.63-33.76,29.63-3.56,0-4.88-1.88-4.88-5.25,0-4.31,5.25-17.26,9-27.95l-.75-.19c-8.25,11.82-27.76,33.39-40.89,33.39-7.5,0-9.94-5.63-9.94-12.19ZM442.77,276.45c7.13-13.69,11.25-25.32,11.25-30.95,0-6.38-2.25-11.25-8.63-11.25-15.57,0-41.64,51.2-41.64,68.08,0,5.44.38,8.25,5.63,8.25,6.19,0,22.32-12.75,33.39-34.14Z"/>
        <path class="cls-1" d="M476.52,306.27c0-9,3.56-18.57,6.38-26.82l33.01-92.09-12.57-1.13v-2.25h28.13l-23.45,65.83.56.19c7.69-10.69,18.76-19.88,26.63-19.88,9.75,0,15.57,6.56,15.57,19.69,0,27.57-32.26,71.27-58.14,71.27-9.57,0-16.13-6-16.13-14.82ZM536.17,244.38c0-6.94-1.88-9.38-5.06-9.38-6.94,0-21.38,12.38-29.26,31.88-6.56,15.94-12.38,33.2-12.38,42.58,0,4.88,2.81,8.44,8.25,8.44,15.57,0,38.45-51.58,38.45-73.52Z"/>
      </g>
      <g>
        <path class="cls-1" d="M67.07,256.46h-1.8v-10.4c0-.41.01-.87.04-1.37.03-.5.06-1.05.11-1.64h-.04c-.09.35-.17.64-.24.9-.08.25-.15.45-.22.61l-5.3,11.91h-.89l-5.29-11.83c-.07-.17-.15-.39-.23-.66s-.16-.58-.24-.93h-.04c.03.31.05.72.06,1.22.01.5.02,1.11.02,1.82v10.38h-1.75v-15.5h2.4l4.76,10.81c.19.41.34.77.46,1.08.12.31.2.57.25.78h.06c.16-.42.3-.8.42-1.11.12-.32.23-.58.32-.79l4.86-10.77h2.27v15.5Z"/>
        <path class="cls-1" d="M78.75,256.46h-1.77v-1.73h-.04c-.38.66-.85,1.16-1.41,1.49-.56.33-1.21.5-1.95.5-1.04,0-1.88-.3-2.52-.91-.64-.61-.96-1.41-.96-2.41,0-.94.32-1.73.97-2.35.65-.62,1.57-1.02,2.76-1.19l3.16-.42v-.25c0-.93-.22-1.59-.65-1.98-.43-.39-1.01-.59-1.73-.59-.58,0-1.13.11-1.67.32-.53.22-1.03.55-1.5,1l-1.04-1.07c.62-.6,1.28-1.04,1.98-1.32.7-.28,1.48-.42,2.33-.42,1.34,0,2.35.34,3.03,1.03.68.69,1.02,1.72,1.02,3.1v7.2ZM76.98,251.96v-1.1l-2.67.37c-.81.12-1.43.32-1.84.62-.41.29-.62.76-.62,1.39s.19,1.17.58,1.52c.39.35.86.52,1.41.52.96,0,1.72-.31,2.29-.94.57-.63.85-1.42.85-2.38Z"/>
        <path class="cls-1" d="M87.64,246.9c-.14-.04-.26-.07-.37-.09-.11-.02-.25-.03-.41-.03-.9,0-1.61.38-2.13,1.15-.52.77-.78,1.73-.78,2.88v5.64h-1.77v-11.07h1.77v2.2h.04c.25-.78.64-1.37,1.16-1.78.52-.41,1.12-.61,1.79-.61.22,0,.41.01.57.03.16.02.29.05.42.1l-.29,1.58Z"/>
        <path class="cls-1" d="M99.06,256.46h-2.49l-4.89-5.32h-.04v5.32h-1.77v-16.39h1.77v10.39h.04l4.65-5.07h2.32l-5.13,5.34,5.54,5.73Z"/>
        <path class="cls-1" d="M109.78,251.32h-7.83c.03,1.25.36,2.21.99,2.88.63.67,1.51,1.01,2.65,1.01.5,0,1-.07,1.5-.22s1-.38,1.49-.71l.82,1.26c-.63.4-1.25.7-1.88.89s-1.32.28-2.07.28c-1.67,0-2.98-.5-3.91-1.49-.94-1-1.41-2.38-1.42-4.16,0-1.78.46-3.21,1.41-4.3.95-1.09,2.18-1.63,3.69-1.63s2.56.47,3.36,1.41,1.2,2.24,1.2,3.91v.88ZM107.96,249.87c0-1.02-.26-1.82-.75-2.4-.49-.57-1.16-.86-2.02-.86s-1.56.29-2.15.88c-.59.59-.95,1.38-1.08,2.37h5.99Z"/>
        <path class="cls-1" d="M117.74,256.33c-.3.12-.6.21-.89.28-.29.06-.62.09-.99.09-.88,0-1.57-.26-2.07-.77-.5-.52-.75-1.28-.75-2.29v-6.74h-1.9v-1.51h1.9v-2.7l1.77-.57v3.28h2.79v1.51h-2.79v6.53c0,.63.11,1.09.34,1.37.23.28.57.42,1.02.42.22,0,.43-.03.63-.08.2-.05.37-.11.51-.17l.43,1.35Z"/>
        <path class="cls-1" d="M120.87,242.74c-.36,0-.66-.12-.91-.36-.24-.24-.37-.54-.37-.89s.12-.65.37-.89c.25-.24.55-.36.91-.36s.66.12.91.36c.25.24.37.54.37.89s-.12.65-.37.89c-.24.24-.55.36-.91.36ZM121.74,256.46h-1.77v-11.07h1.77v11.07Z"/>
        <path class="cls-1" d="M134.52,256.46h-1.77v-6.31c0-1.17-.21-2.06-.64-2.64-.43-.59-1.07-.88-1.93-.88s-1.62.33-2.2,1c-.58.67-.87,1.51-.87,2.52v6.31h-1.77v-11.07h1.77v1.84h.04c.42-.7.93-1.22,1.54-1.57s1.3-.52,2.1-.52c1.21,0,2.14.39,2.78,1.17s.96,1.91.96,3.39v6.77Z"/>
        <path class="cls-1" d="M147.31,255.86c0,1.94-.5,3.39-1.49,4.36s-2.35,1.45-4.07,1.45c-.76,0-1.46-.07-2.11-.22-.65-.14-1.32-.38-2.02-.7l.65-1.36c.58.27,1.14.46,1.69.58.55.12,1.14.18,1.77.18,1.18,0,2.11-.33,2.79-1,.68-.67,1.02-1.69,1.02-3.05v-1.5h-.04c-.42.71-.95,1.24-1.58,1.59-.63.35-1.38.53-2.23.53-1.38,0-2.48-.49-3.32-1.48-.84-.98-1.26-2.3-1.26-3.96,0-1.82.46-3.3,1.39-4.44s2.15-1.71,3.68-1.71c.75,0,1.4.15,1.95.45s1.01.75,1.37,1.35h.04v-1.54h1.77v10.48ZM145.53,251.45v-1.63c0-.88-.3-1.63-.89-2.26-.59-.63-1.33-.94-2.22-.94-1.09,0-1.95.38-2.57,1.12-.62.75-.94,1.89-.94,3.42,0,1.31.29,2.32.87,3.02s1.37,1.05,2.39,1.05,1.8-.35,2.43-1.06.94-1.61.94-2.71Z"/>
        <path class="cls-1" d="M155.92,255.62l.84-1.36c.48.32.96.56,1.42.72.46.16.96.24,1.49.24.76,0,1.33-.14,1.72-.42s.59-.7.59-1.26c0-.45-.17-.84-.52-1.15s-.9-.56-1.64-.75c-1.38-.35-2.33-.8-2.84-1.33s-.77-1.2-.77-1.98c0-.91.34-1.67,1.03-2.28.68-.61,1.64-.91,2.87-.91.59,0,1.15.08,1.69.23s1.08.41,1.63.78l-.79,1.34c-.5-.32-.96-.54-1.36-.67-.4-.13-.8-.19-1.22-.19-.71,0-1.26.13-1.63.39-.38.26-.56.64-.56,1.14s.19.87.58,1.12c.39.25,1.01.49,1.87.71,1.12.3,1.97.73,2.52,1.27.56.54.84,1.26.84,2.14,0,1.02-.36,1.83-1.09,2.43s-1.72.89-2.98.89c-.68,0-1.33-.09-1.95-.28s-1.2-.46-1.74-.81Z"/>
        <path class="cls-1" d="M171.63,256.33c-.3.12-.6.21-.89.28-.29.06-.62.09-.99.09-.88,0-1.57-.26-2.07-.77s-.75-1.28-.75-2.29v-6.74h-1.9v-1.51h1.9v-2.7l1.77-.57v3.28h2.79v1.51h-2.79v6.53c0,.63.11,1.09.34,1.37s.57.42,1.02.42c.22,0,.43-.03.63-.08.2-.05.37-.11.51-.17l.43,1.35Z"/>
        <path class="cls-1" d="M179.32,246.9c-.14-.04-.26-.07-.37-.09-.11-.02-.25-.03-.41-.03-.9,0-1.61.38-2.13,1.15s-.78,1.73-.78,2.88v5.64h-1.77v-11.07h1.77v2.2h.04c.25-.78.64-1.37,1.16-1.78s1.12-.61,1.79-.61c.22,0,.41.01.57.03.15.02.29.05.42.1l-.29,1.58Z"/>
        <path class="cls-1" d="M189.4,256.46h-1.77v-1.73h-.04c-.38.66-.85,1.16-1.41,1.49-.56.33-1.21.5-1.95.5-1.04,0-1.88-.3-2.52-.91-.64-.61-.96-1.41-.96-2.41,0-.94.32-1.73.97-2.35.65-.62,1.57-1.02,2.76-1.19l3.16-.42v-.25c0-.93-.22-1.59-.65-1.98-.43-.39-1.01-.59-1.73-.59-.58,0-1.13.11-1.67.32-.53.22-1.03.55-1.5,1l-1.04-1.07c.62-.6,1.28-1.04,1.98-1.32.7-.28,1.48-.42,2.33-.42,1.34,0,2.35.34,3.03,1.03.68.69,1.02,1.72,1.02,3.1v7.2ZM187.62,251.96v-1.1l-2.67.37c-.81.12-1.43.32-1.84.62-.41.29-.62.76-.62,1.39s.19,1.17.58,1.52c.39.35.86.52,1.41.52.96,0,1.72-.31,2.29-.94.57-.63.85-1.42.85-2.38Z"/>
        <path class="cls-1" d="M198.1,256.33c-.3.12-.6.21-.89.28-.29.06-.62.09-.99.09-.88,0-1.57-.26-2.07-.77s-.75-1.28-.75-2.29v-6.74h-1.9v-1.51h1.9v-2.7l1.77-.57v3.28h2.79v1.51h-2.79v6.53c0,.63.11,1.09.34,1.37s.57.42,1.02.42c.22,0,.43-.03.63-.08.2-.05.37-.11.51-.17l.43,1.35Z"/>
        <path class="cls-1" d="M209.22,251.32h-7.83c.03,1.25.36,2.21.99,2.88.63.67,1.51,1.01,2.65,1.01.5,0,1-.07,1.5-.22.5-.15,1-.38,1.49-.71l.82,1.26c-.63.4-1.25.7-1.88.89s-1.32.28-2.06.28c-1.67,0-2.98-.5-3.91-1.49-.94-1-1.41-2.38-1.42-4.16,0-1.78.46-3.21,1.41-4.3.95-1.09,2.18-1.63,3.69-1.63s2.56.47,3.36,1.41c.8.94,1.2,2.24,1.2,3.91v.88ZM207.41,249.87c0-1.02-.26-1.82-.75-2.4-.49-.57-1.16-.86-2.02-.86s-1.56.29-2.15.88c-.59.59-.95,1.38-1.08,2.37h5.99Z"/>
        <path class="cls-1" d="M221.36,255.86c0,1.94-.5,3.39-1.49,4.36-.99.97-2.35,1.45-4.07,1.45-.76,0-1.46-.07-2.11-.22-.65-.14-1.32-.38-2.02-.7l.65-1.36c.58.27,1.14.46,1.69.58.55.12,1.14.18,1.77.18,1.18,0,2.11-.33,2.79-1,.68-.67,1.02-1.69,1.02-3.05v-1.5h-.04c-.42.71-.94,1.24-1.58,1.59-.63.35-1.38.53-2.23.53-1.38,0-2.49-.49-3.33-1.48-.84-.98-1.26-2.3-1.26-3.96,0-1.82.46-3.3,1.39-4.44.93-1.14,2.15-1.71,3.68-1.71.75,0,1.4.15,1.95.45.55.3,1.01.75,1.37,1.35h.04v-1.54h1.77v10.48ZM219.58,251.45v-1.63c0-.88-.3-1.63-.89-2.26-.59-.63-1.33-.94-2.22-.94-1.09,0-1.94.38-2.57,1.12-.62.75-.93,1.89-.93,3.42,0,1.31.29,2.32.86,3.02.58.7,1.37,1.05,2.39,1.05s1.8-.35,2.43-1.06c.62-.71.94-1.61.94-2.71Z"/>
        <path class="cls-1" d="M233.76,245.38l-5.22,13.18c-.41,1.04-.93,1.81-1.55,2.33-.62.51-1.35.77-2.18.77-.22,0-.42-.01-.6-.04-.18-.03-.35-.06-.52-.1l.35-1.51c.13.04.25.07.36.09.11.02.22.03.33.03.48,0,.87-.12,1.18-.37s.56-.59.75-1.04l.96-2.29-4.33-11.05h1.97l2.99,8.52c.01.05.04.15.08.29.04.14.09.33.15.55h.07c.02-.09.05-.2.08-.33.03-.14.08-.3.13-.49l3.15-8.54h1.84Z"/>
        <path class="cls-1" d="M237.27,253.99l-1.72,5.32h-1.26l1.26-5.32h1.72Z"/>
        <path class="cls-1" d="M51.27,283.03v-15.5h4.42c1.34,0,2.4.32,3.18.96s1.17,1.5,1.17,2.59c0,.88-.24,1.64-.71,2.29-.48.65-1.13,1.11-1.97,1.38v.04c1.04.12,1.88.52,2.51,1.18s.94,1.53.94,2.6c0,1.33-.48,2.4-1.43,3.22-.95.82-2.15,1.23-3.6,1.23h-4.52ZM53.08,269.17v5.01h1.86c1,0,1.78-.24,2.35-.72.57-.48.85-1.15.85-2.03,0-.76-.25-1.32-.75-1.7-.5-.37-1.24-.56-2.22-.56h-2.1ZM53.08,275.8v5.58h2.46c1.07,0,1.89-.25,2.48-.76.59-.5.88-1.2.88-2.08s-.31-1.6-.94-2.06c-.62-.46-1.56-.69-2.81-.69h-2.09Z"/>
        <path class="cls-1" d="M69.18,273.47c-.14-.04-.26-.07-.37-.09-.11-.02-.25-.03-.41-.03-.9,0-1.61.38-2.13,1.15s-.78,1.73-.78,2.88v5.64h-1.77v-11.07h1.77v2.2h.04c.25-.78.64-1.37,1.16-1.78s1.12-.61,1.79-.61c.22,0,.41.01.57.03.15.02.29.05.42.1l-.29,1.58Z"/>
        <path class="cls-1" d="M79.26,283.03h-1.77v-1.73h-.04c-.38.66-.85,1.16-1.41,1.49-.56.33-1.21.5-1.95.5-1.04,0-1.88-.3-2.52-.91-.64-.61-.96-1.41-.96-2.41,0-.94.32-1.73.97-2.35.65-.62,1.57-1.02,2.76-1.19l3.16-.42v-.25c0-.93-.22-1.59-.65-1.98-.43-.39-1.01-.59-1.73-.59-.58,0-1.13.11-1.67.32-.53.22-1.03.55-1.5,1l-1.04-1.07c.62-.6,1.28-1.04,1.98-1.32.7-.28,1.48-.42,2.33-.42,1.34,0,2.35.34,3.03,1.03.68.69,1.02,1.72,1.02,3.1v7.2ZM77.48,278.53v-1.1l-2.67.37c-.81.12-1.43.32-1.84.62-.41.29-.62.76-.62,1.39s.19,1.17.58,1.52c.39.35.86.52,1.41.52.96,0,1.72-.31,2.29-.94.57-.63.85-1.42.85-2.38Z"/>
        <path class="cls-1" d="M91.88,283.03h-1.77v-6.31c0-1.17-.21-2.06-.64-2.64-.43-.59-1.07-.88-1.93-.88s-1.62.33-2.2,1c-.58.67-.87,1.51-.87,2.52v6.31h-1.77v-11.07h1.77v1.84h.04c.42-.7.93-1.22,1.54-1.57s1.3-.52,2.1-.52c1.21,0,2.14.39,2.78,1.17.64.78.96,1.91.96,3.39v6.77Z"/>
        <path class="cls-1" d="M102.85,281.15c-.41.71-.93,1.25-1.56,1.61-.63.36-1.38.54-2.24.54-1.39,0-2.5-.5-3.34-1.49-.83-.99-1.25-2.34-1.25-4.05,0-1.83.46-3.3,1.38-4.4.92-1.1,2.15-1.65,3.69-1.65.76,0,1.42.15,1.97.45.55.3,1,.75,1.35,1.35h.04v-6.85h1.77v16.39h-1.77v-1.88h-.04ZM96.28,277.66c0,1.28.3,2.28.89,3.02.59.74,1.39,1.11,2.4,1.11s1.8-.36,2.41-1.07c.61-.71.92-1.61.92-2.7v-1.63c0-.89-.3-1.65-.89-2.27-.59-.62-1.34-.93-2.24-.93-1.08,0-1.93.4-2.55,1.19-.62.79-.93,1.89-.93,3.29Z"/>
        <path class="cls-1" d="M109.16,269.31c-.36,0-.66-.12-.91-.36-.24-.24-.37-.54-.37-.89s.12-.65.37-.89c.25-.24.55-.36.91-.36s.66.12.91.36c.25.24.37.54.37.89s-.12.65-.37.89c-.24.24-.55.36-.91.36ZM110.03,283.03h-1.77v-11.07h1.77v11.07Z"/>
        <path class="cls-1" d="M122.81,283.03h-1.77v-6.31c0-1.17-.21-2.06-.64-2.64-.43-.59-1.07-.88-1.93-.88s-1.62.33-2.2,1c-.58.67-.87,1.51-.87,2.52v6.31h-1.77v-11.07h1.77v1.84h.04c.42-.7.93-1.22,1.54-1.57s1.3-.52,2.1-.52c1.21,0,2.14.39,2.78,1.17s.96,1.91.96,3.39v6.77Z"/>
        <path class="cls-1" d="M135.6,282.43c0,1.94-.5,3.39-1.49,4.36s-2.35,1.45-4.07,1.45c-.76,0-1.46-.07-2.11-.22-.65-.14-1.32-.38-2.02-.7l.65-1.36c.58.27,1.14.46,1.69.58.55.12,1.14.18,1.77.18,1.18,0,2.11-.33,2.79-1,.68-.67,1.02-1.69,1.02-3.05v-1.5h-.04c-.42.71-.95,1.24-1.58,1.59-.63.35-1.38.53-2.23.53-1.38,0-2.48-.49-3.32-1.48-.84-.98-1.26-2.3-1.26-3.96,0-1.82.46-3.3,1.39-4.44s2.15-1.71,3.68-1.71c.75,0,1.4.15,1.95.45s1.01.75,1.37,1.35h.04v-1.54h1.77v10.48ZM133.82,278.02v-1.63c0-.88-.3-1.63-.89-2.26-.59-.63-1.33-.94-2.22-.94-1.09,0-1.95.38-2.57,1.12-.62.75-.94,1.89-.94,3.42,0,1.31.29,2.32.87,3.02s1.37,1.05,2.39,1.05,1.8-.35,2.43-1.06.94-1.61.94-2.71Z"/>
        <path class="cls-1" d="M158,283.03l-1.86-1.81c-.58.55-1.3,1.03-2.17,1.44-.87.41-1.88.62-3.04.62-1.55,0-2.81-.38-3.79-1.15-.98-.76-1.47-1.87-1.47-3.32,0-1.06.29-1.97.87-2.73s1.39-1.39,2.44-1.89c-.55-.62-.94-1.2-1.16-1.74s-.34-1.09-.34-1.65c0-1.14.38-2.01,1.16-2.63.77-.61,1.73-.92,2.87-.92s2.03.3,2.74.89c.71.59,1.07,1.39,1.07,2.39,0,.85-.24,1.56-.71,2.14-.48.58-1.48,1.19-3.02,1.85l4.58,4.41c.5-.65.86-1.32,1.08-2.03.22-.7.34-1.55.34-2.55h1.69c0,1.11-.17,2.11-.5,3.01-.33.89-.84,1.77-1.51,2.62l3.13,3.03h-2.38ZM155.06,280.16l-5.08-4.95c-.74.33-1.34.77-1.81,1.31-.47.54-.7,1.29-.7,2.24s.33,1.71.99,2.22c.66.51,1.48.77,2.46.77.9,0,1.69-.15,2.37-.46.68-.31,1.26-.68,1.76-1.12ZM150.57,273.56c1.21-.44,2.02-.87,2.44-1.29.41-.42.62-.94.62-1.56,0-.71-.23-1.23-.7-1.55s-.95-.48-1.44-.48c-.71,0-1.27.19-1.7.57-.43.38-.64.9-.64,1.56,0,.5.12.96.36,1.38.24.42.59.88,1.05,1.37Z"/>
        <path class="cls-1" d="M167.48,283.03l5.95-15.5h1.88l5.97,15.5h-2.01l-1.57-4.15h-6.71l-1.48,4.15h-2.02ZM171.59,277.24h5.51l-2.51-6.8c-.04-.11-.08-.25-.12-.42-.04-.17-.08-.38-.12-.62h-.04c-.04.22-.07.41-.11.58s-.08.32-.14.45l-2.48,6.8Z"/>
        <path class="cls-1" d="M185.37,283.03h-1.82v-15.5h1.82v15.5Z"/>
      </g>
    </g>
  </g>
</svg>