<svg width="800" height="800" viewBox="0 0 800 800" xmlns="http://www.w3.org/2000/svg">
  <path fill="#360f11" fill-rule="evenodd" clip-rule="evenodd" d="M400 130c-148.7 0-269.2 120.5-269.2 269.2 0 47.6 12.4 92.4 34.1 131.3L128 672l145.8-36.3c37.4 20.4 80.3 32 125.9 32h.1c148.6 0 269.2-120.5 269.2-269.2C669 250.5 548.6 130 400 130zm0 491.5h-.1c-40.6 0-80.5-10.9-115.3-31.6l-8.3-4.9-85.8 22.5 22.9-83.7-5.4-8.6c-22.7-36.1-34.7-77.8-34.7-120.5 0-125.1 101.8-226.9 227-226.9 60.6 0 117.6 23.6 160.4 66.5 42.8 42.9 66.4 99.9 66.4 160.5-.1 125.1-101.9 226.7-227 226.7z"/>
  <path fill="#360f11" d="M328.5 300.4c-5.1-11.3-10.4-11.5-15.2-11.7-3.9-.2-8.5-.2-13-.2s-11.9 1.7-18.1 8.5c-6.2 6.8-23.8 23.2-23.8 56.6s24.3 65.6 27.7 70.2c3.4 4.5 47 75.3 116.1 102.5 57.4 22.6 69.1 18.1 81.6 17 12.5-1.1 40.2-16.4 45.9-32.3 5.7-15.9 5.7-29.5 4-32.3-1.7-2.8-6.2-4.5-13-7.9-6.8-3.4-40.2-19.8-46.4-22.1-6.2-2.3-10.8-3.4-15.3 3.4-4.5 6.8-17.5 22.1-21.5 26.6-4 4.5-7.9 5.1-14.7 1.7-6.8-3.4-28.7-10.6-54.7-33.8-20.2-18-33.9-40.3-37.9-47.1-4-6.8-.4-10.5 3-13.9 3.1-3 6.8-7.9 10.2-11.9 3.4-4 4.5-6.8 6.8-11.3 2.3-4.5 1.1-8.5-.6-11.9-1.7-3.4-14.9-37-21.1-50.5z"/>
</svg>