<?xml version="1.0" encoding="UTF-8"?>
<svg id="Camada_2" xmlns="http://www.w3.org/2000/svg" version="1.1" viewBox="0 0 550.8 321.3">
  <!-- Generator: Adobe Illustrator 30.5.1, SVG Export Plug-In . SVG Version: 2.1.4 Build 3)  -->
  <defs>
    <style>
      .st0 {
        fill: #360f11;
      }

      .st1 {
        isolation: isolate;
      }
    </style>
  </defs>
  <g id="Camada_1-2">
    <g>
      <g class="st1">
        <g class="st1">
          <path class="st0" d="M48.6,77.3L0,0h18.8l38.4,63.8h.4L96.6,0h18l-49.1,77.6v56.5h-16.9v-56.8Z"/>
        </g>
        <g class="st1">
          <path class="st0" d="M168.4,120.6h-.2c-5.8,7.5-15.8,15.4-32.3,15.4s-32.8-8.6-32.8-27,18-27.6,42.2-31.3c13.7-2.1,23.3-3.4,23.3-13.9s-7.9-17.1-21.8-17.1-23.6,6.8-24.2,21.4h-14.6c.6-18.8,12.9-32.8,38.6-32.8s35.8,7.7,35.8,30.8v46.1c0,7.9,1.9,12.2,10.3,10.3h.6v11.1c-1.9.8-4.3,1.5-8.3,1.5-9.9,0-15.2-4.5-16.7-14.4ZM168.8,98.3v-16.5c-5.1,3.2-13.9,5.6-22.1,7.1-15.2,2.8-27.4,5.4-27.4,19.7s10.1,15.8,20.1,15.8c20.3,0,29.4-14.8,29.4-26.1Z"/>
        </g>
        <g class="st1">
          <path class="st0" d="M219.8,53.3h.4c5.8-9.4,15.9-17.3,28.9-17.3s4.3.4,6.2,1.1v14.6h-.6c-2.3-.8-3.8-.9-6.8-.9-15,0-28.1,11.3-28.1,29.4v53.8h-15.2V37.1h15.2v16.1Z"/>
        </g>
        <g class="st1">
          <path class="st0" d="M259.8,85.9c0-32.3,18.6-51,42.6-51s24.2,6.8,30.4,15.9h.4V0h15.2v134.1h-15.2v-11.8h-.4c-7.3,9.4-16.3,14.6-30,14.6-26.4,0-42.9-19.9-42.9-51ZM334,86.1c0-22.5-10.9-38.3-30.9-38.3s-27.8,16.5-27.8,38.3,9.4,38.1,27.9,38.1,30.8-16.1,30.8-38.1Z"/>
          <path class="st0" d="M363.5,85.7c0-28.1,18.4-51,45.9-51s44.6,22.5,44.6,54.6h-75c1.1,19.7,11.8,34.7,31.3,34.7s23.4-6.8,26.8-19.9h14.8c-4.5,20.8-19.7,32.6-41.6,32.6s-46.9-22.9-46.9-51ZM379.4,77.8h58.3c-.9-19.3-10.9-31.1-28.3-31.1s-27.8,13.5-30,31.1Z"/>
          <path class="st0" d="M484.1,49.9h.4c6.9-9.2,16.7-15,30.8-15,20.3,0,32.6,11.1,32.6,31.1v68.1h-15.2v-66.8c0-12.6-8.3-19.7-21.9-19.7s-26.6,10.9-26.6,26.8v59.6h-15.2V37.1h15.2v12.8Z"/>
        </g>
      </g>
      <g class="st1">
        <g class="st1">
          <path class="st0" d="M344.5,316.9c0-1.1,4.1-13.1,5.1-15.6l41.1-114.6-12.4-.8v-2.1h27.9l-44.8,126.2.6.4c6.6-2.3,18.8-15.6,24.4-23.4l1.5,1.1c-6.8,12.8-24.8,33-38.1,33s-5.3-1.9-5.3-4.3Z"/>
          <path class="st0" d="M388.4,308.9c0-32.1,36.6-77.8,60.4-77.8s9,3.2,10.7,6.2l1.1-3,13.5-4.1h1.1l-21.2,55.1c-3,8.1-7.5,21.4-6.8,23.4,4.5-1.1,15.9-13.1,21-18.6l1.3,1.3c-5.1,8.1-24.9,29.6-33.8,29.6s-4.9-1.9-4.9-5.3,5.3-17.3,9-27.9l-.8-.2c-8.3,11.8-27.8,33.4-40.9,33.4s-9.9-5.6-9.9-12.2ZM442.8,276.4c7.1-13.7,11.3-25.3,11.3-30.9s-2.2-11.3-8.6-11.3c-15.6,0-41.6,51.2-41.6,68.1s.4,8.3,5.6,8.3,22.3-12.8,33.4-34.1Z"/>
          <path class="st0" d="M476.5,306.3c0-9,3.6-18.6,6.4-26.8l33-92.1-12.6-1.1v-2.3h28.1l-23.4,65.8.6.2c7.7-10.7,18.8-19.9,26.6-19.9s15.6,6.6,15.6,19.7c0,27.6-32.3,71.3-58.1,71.3s-16.1-6-16.1-14.8ZM536.2,244.4c0-6.9-1.9-9.4-5.1-9.4-6.9,0-21.4,12.4-29.3,31.9-6.6,15.9-12.4,33.2-12.4,42.6s2.8,8.4,8.3,8.4c15.6,0,38.4-51.6,38.4-73.5Z"/>
        </g>
      </g>
      <g class="st1">
        <g class="st1">
          <path class="st0" d="M67.1,256.4h-1.8v-10.4c0-.4,0-.9,0-1.4,0-.5,0-1.1.1-1.6h0c0,.3-.2.6-.2.9s-.1.5-.2.6l-5.3,11.9h-.9l-5.3-11.8c0-.2-.1-.4-.2-.7,0-.3-.2-.6-.2-.9h0c0,.3,0,.7,0,1.2,0,.5,0,1.1,0,1.8v10.4h-1.8v-15.5h2.4l4.8,10.8c.2.4.3.8.5,1.1.1.3.2.6.3.8h0c.2-.4.3-.8.4-1.1.1-.3.2-.6.3-.8l4.9-10.8h2.3v15.5Z"/>
          <path class="st0" d="M78.7,256.4h-1.8v-1.7h0c-.4.7-.9,1.2-1.4,1.5-.6.3-1.2.5-2,.5s-1.9-.3-2.5-.9-1-1.4-1-2.4.3-1.7,1-2.3c.6-.6,1.6-1,2.8-1.2l3.2-.4v-.2c0-.9-.2-1.6-.6-2-.4-.4-1-.6-1.7-.6s-1.1.1-1.7.3c-.5.2-1,.5-1.5,1l-1-1.1c.6-.6,1.3-1,2-1.3.7-.3,1.5-.4,2.3-.4,1.3,0,2.3.3,3,1,.7.7,1,1.7,1,3.1v7.2ZM77,251.9v-1.1l-2.7.4c-.8.1-1.4.3-1.8.6-.4.3-.6.8-.6,1.4s.2,1.2.6,1.5c.4.4.9.5,1.4.5,1,0,1.7-.3,2.3-.9.6-.6.8-1.4.8-2.4Z"/>
          <path class="st0" d="M87.6,246.9c-.1,0-.3,0-.4,0-.1,0-.2,0-.4,0-.9,0-1.6.4-2.1,1.2-.5.8-.8,1.7-.8,2.9v5.6h-1.8v-11.1h1.8v2.2h0c.3-.8.6-1.4,1.2-1.8.5-.4,1.1-.6,1.8-.6s.4,0,.6,0c.2,0,.3,0,.4,0l-.3,1.6Z"/>
          <path class="st0" d="M99.1,256.4h-2.5l-4.9-5.3h0v5.3h-1.8v-16.4h1.8v10.4h0l4.6-5.1h2.3l-5.1,5.3,5.5,5.7Z"/>
          <path class="st0" d="M109.8,251.3h-7.8c0,1.2.4,2.2,1,2.9.6.7,1.5,1,2.7,1s1,0,1.5-.2c.5-.1,1-.4,1.5-.7l.8,1.3c-.6.4-1.3.7-1.9.9s-1.3.3-2.1.3c-1.7,0-3-.5-3.9-1.5-.9-1-1.4-2.4-1.4-4.2,0-1.8.5-3.2,1.4-4.3.9-1.1,2.2-1.6,3.7-1.6s2.6.5,3.4,1.4,1.2,2.2,1.2,3.9v.9ZM108,249.9c0-1-.3-1.8-.7-2.4-.5-.6-1.2-.9-2-.9s-1.6.3-2.1.9c-.6.6-.9,1.4-1.1,2.4h6Z"/>
          <path class="st0" d="M117.7,256.3c-.3.1-.6.2-.9.3-.3,0-.6,0-1,0-.9,0-1.6-.3-2.1-.8s-.8-1.3-.8-2.3v-6.7h-1.9v-1.5h1.9v-2.7l1.8-.6v3.3h2.8v1.5h-2.8v6.5c0,.6.1,1.1.3,1.4s.6.4,1,.4.4,0,.6,0c.2,0,.4-.1.5-.2l.4,1.4Z"/>
          <path class="st0" d="M120.9,242.7c-.4,0-.7-.1-.9-.4-.2-.2-.4-.5-.4-.9s.1-.7.4-.9.5-.4.9-.4.7.1.9.4c.2.2.4.5.4.9s-.1.7-.4.9c-.2.2-.5.4-.9.4ZM121.7,256.4h-1.8v-11.1h1.8v11.1Z"/>
          <path class="st0" d="M134.5,256.4h-1.8v-6.3c0-1.2-.2-2.1-.6-2.6-.4-.6-1.1-.9-1.9-.9s-1.6.3-2.2,1c-.6.7-.9,1.5-.9,2.5v6.3h-1.8v-11.1h1.8v1.8h0c.4-.7.9-1.2,1.5-1.6.6-.3,1.3-.5,2.1-.5,1.2,0,2.1.4,2.8,1.2.6.8,1,1.9,1,3.4v6.8Z"/>
          <path class="st0" d="M147.3,255.9c0,1.9-.5,3.4-1.5,4.4-1,1-2.3,1.4-4.1,1.4s-1.5,0-2.1-.2c-.7-.1-1.3-.4-2-.7l.6-1.4c.6.3,1.1.5,1.7.6.6.1,1.1.2,1.8.2,1.2,0,2.1-.3,2.8-1,.7-.7,1-1.7,1-3v-1.5h0c-.4.7-.9,1.2-1.6,1.6-.6.4-1.4.5-2.2.5-1.4,0-2.5-.5-3.3-1.5-.8-1-1.3-2.3-1.3-4s.5-3.3,1.4-4.4c.9-1.1,2.2-1.7,3.7-1.7s1.4.1,2,.4c.6.3,1,.7,1.4,1.3h0v-1.5h1.8v10.5ZM145.5,251.4v-1.6c0-.9-.3-1.6-.9-2.3s-1.3-.9-2.2-.9-1.9.4-2.6,1.1c-.6.7-.9,1.9-.9,3.4s.3,2.3.9,3,1.4,1,2.4,1,1.8-.4,2.4-1.1c.6-.7.9-1.6.9-2.7Z"/>
          <path class="st0" d="M155.9,255.6l.8-1.4c.5.3,1,.6,1.4.7.5.2,1,.2,1.5.2.8,0,1.3-.1,1.7-.4.4-.3.6-.7.6-1.3s-.2-.8-.5-1.2c-.4-.3-.9-.6-1.6-.8-1.4-.4-2.3-.8-2.8-1.3-.5-.5-.8-1.2-.8-2s.3-1.7,1-2.3c.7-.6,1.6-.9,2.9-.9s1.2,0,1.7.2c.5.2,1.1.4,1.6.8l-.8,1.3c-.5-.3-1-.5-1.4-.7s-.8-.2-1.2-.2c-.7,0-1.3.1-1.6.4-.4.3-.6.6-.6,1.1s.2.9.6,1.1c.4.3,1,.5,1.9.7,1.1.3,2,.7,2.5,1.3s.8,1.3.8,2.1-.4,1.8-1.1,2.4c-.7.6-1.7.9-3,.9s-1.3,0-2-.3-1.2-.5-1.7-.8Z"/>
          <path class="st0" d="M171.6,256.3c-.3.1-.6.2-.9.3-.3,0-.6,0-1,0-.9,0-1.6-.3-2.1-.8s-.8-1.3-.8-2.3v-6.7h-1.9v-1.5h1.9v-2.7l1.8-.6v3.3h2.8v1.5h-2.8v6.5c0,.6.1,1.1.3,1.4s.6.4,1,.4.4,0,.6,0c.2,0,.4-.1.5-.2l.4,1.4Z"/>
          <path class="st0" d="M179.3,246.9c-.1,0-.3,0-.4,0-.1,0-.2,0-.4,0-.9,0-1.6.4-2.1,1.2-.5.8-.8,1.7-.8,2.9v5.6h-1.8v-11.1h1.8v2.2h0c.3-.8.6-1.4,1.2-1.8.5-.4,1.1-.6,1.8-.6s.4,0,.6,0c.2,0,.3,0,.4,0l-.3,1.6Z"/>
          <path class="st0" d="M189.4,256.4h-1.8v-1.7h0c-.4.7-.9,1.2-1.4,1.5-.6.3-1.2.5-2,.5s-1.9-.3-2.5-.9-1-1.4-1-2.4.3-1.7,1-2.3c.6-.6,1.6-1,2.8-1.2l3.2-.4v-.2c0-.9-.2-1.6-.6-2-.4-.4-1-.6-1.7-.6s-1.1.1-1.7.3c-.5.2-1,.5-1.5,1l-1-1.1c.6-.6,1.3-1,2-1.3.7-.3,1.5-.4,2.3-.4,1.3,0,2.3.3,3,1,.7.7,1,1.7,1,3.1v7.2ZM187.6,251.9v-1.1l-2.7.4c-.8.1-1.4.3-1.8.6-.4.3-.6.8-.6,1.4s.2,1.2.6,1.5c.4.4.9.5,1.4.5,1,0,1.7-.3,2.3-.9.6-.6.8-1.4.8-2.4Z"/>
          <path class="st0" d="M198.1,256.3c-.3.1-.6.2-.9.3-.3,0-.6,0-1,0-.9,0-1.6-.3-2.1-.8s-.8-1.3-.8-2.3v-6.7h-1.9v-1.5h1.9v-2.7l1.8-.6v3.3h2.8v1.5h-2.8v6.5c0,.6.1,1.1.3,1.4s.6.4,1,.4.4,0,.6,0c.2,0,.4-.1.5-.2l.4,1.4Z"/>
          <path class="st0" d="M209.2,251.3h-7.8c0,1.2.4,2.2,1,2.9.6.7,1.5,1,2.7,1s1,0,1.5-.2c.5-.1,1-.4,1.5-.7l.8,1.3c-.6.4-1.3.7-1.9.9s-1.3.3-2.1.3c-1.7,0-3-.5-3.9-1.5-.9-1-1.4-2.4-1.4-4.2,0-1.8.5-3.2,1.4-4.3.9-1.1,2.2-1.6,3.7-1.6s2.6.5,3.4,1.4,1.2,2.2,1.2,3.9v.9ZM207.4,249.9c0-1-.3-1.8-.7-2.4-.5-.6-1.2-.9-2-.9s-1.6.3-2.1.9c-.6.6-.9,1.4-1.1,2.4h6Z"/>
          <path class="st0" d="M221.3,255.9c0,1.9-.5,3.4-1.5,4.4-1,1-2.3,1.4-4.1,1.4s-1.5,0-2.1-.2c-.7-.1-1.3-.4-2-.7l.6-1.4c.6.3,1.1.5,1.7.6.6.1,1.1.2,1.8.2,1.2,0,2.1-.3,2.8-1,.7-.7,1-1.7,1-3v-1.5h0c-.4.7-.9,1.2-1.6,1.6-.6.4-1.4.5-2.2.5-1.4,0-2.5-.5-3.3-1.5-.8-1-1.3-2.3-1.3-4s.5-3.3,1.4-4.4c.9-1.1,2.2-1.7,3.7-1.7s1.4.1,2,.4c.6.3,1,.7,1.4,1.3h0v-1.5h1.8v10.5ZM219.6,251.4v-1.6c0-.9-.3-1.6-.9-2.3s-1.3-.9-2.2-.9-1.9.4-2.6,1.1c-.6.7-.9,1.9-.9,3.4s.3,2.3.9,3,1.4,1,2.4,1,1.8-.4,2.4-1.1c.6-.7.9-1.6.9-2.7Z"/>
          <path class="st0" d="M233.7,245.4l-5.2,13.2c-.4,1-.9,1.8-1.5,2.3-.6.5-1.3.8-2.2.8s-.4,0-.6,0c-.2,0-.4,0-.5-.1l.3-1.5c.1,0,.3,0,.4,0s.2,0,.3,0c.5,0,.9-.1,1.2-.4s.6-.6.8-1l1-2.3-4.3-11h2l3,8.5c0,0,0,.1,0,.3,0,.1,0,.3.1.6h0c0,0,0-.2,0-.3s0-.3.1-.5l3.1-8.5h1.8Z"/>
          <path class="st0" d="M237.3,254l-1.7,5.3h-1.3l1.3-5.3h1.7Z"/>
        </g>
        <g class="st1">
          <path class="st0" d="M51.3,283v-15.5h4.4c1.3,0,2.4.3,3.2,1,.8.6,1.2,1.5,1.2,2.6s-.2,1.6-.7,2.3c-.5.6-1.1,1.1-2,1.4h0c1,.2,1.9.6,2.5,1.2s.9,1.5.9,2.6-.5,2.4-1.4,3.2c-1,.8-2.2,1.2-3.6,1.2h-4.5ZM53.1,269.2v5h1.9c1,0,1.8-.2,2.3-.7.6-.5.9-1.2.9-2s-.2-1.3-.7-1.7c-.5-.4-1.2-.6-2.2-.6h-2.1ZM53.1,275.8v5.6h2.5c1.1,0,1.9-.3,2.5-.8.6-.5.9-1.2.9-2.1s-.3-1.6-.9-2.1c-.6-.5-1.6-.7-2.8-.7h-2.1Z"/>
          <path class="st0" d="M69.2,273.5c-.1,0-.3,0-.4,0-.1,0-.2,0-.4,0-.9,0-1.6.4-2.1,1.2-.5.8-.8,1.7-.8,2.9v5.6h-1.8v-11.1h1.8v2.2h0c.3-.8.6-1.4,1.2-1.8.5-.4,1.1-.6,1.8-.6s.4,0,.6,0c.2,0,.3,0,.4,0l-.3,1.6Z"/>
          <path class="st0" d="M79.3,283h-1.8v-1.7h0c-.4.7-.9,1.2-1.4,1.5-.6.3-1.2.5-2,.5s-1.9-.3-2.5-.9-1-1.4-1-2.4.3-1.7,1-2.3c.6-.6,1.6-1,2.8-1.2l3.2-.4v-.2c0-.9-.2-1.6-.6-2-.4-.4-1-.6-1.7-.6s-1.1.1-1.7.3c-.5.2-1,.5-1.5,1l-1-1.1c.6-.6,1.3-1,2-1.3.7-.3,1.5-.4,2.3-.4,1.3,0,2.3.3,3,1,.7.7,1,1.7,1,3.1v7.2ZM77.5,278.5v-1.1l-2.7.4c-.8.1-1.4.3-1.8.6-.4.3-.6.8-.6,1.4s.2,1.2.6,1.5c.4.4.9.5,1.4.5,1,0,1.7-.3,2.3-.9.6-.6.8-1.4.8-2.4Z"/>
          <path class="st0" d="M91.9,283h-1.8v-6.3c0-1.2-.2-2.1-.6-2.6-.4-.6-1.1-.9-1.9-.9s-1.6.3-2.2,1c-.6.7-.9,1.5-.9,2.5v6.3h-1.8v-11.1h1.8v1.8h0c.4-.7.9-1.2,1.5-1.6.6-.3,1.3-.5,2.1-.5,1.2,0,2.1.4,2.8,1.2.6.8,1,1.9,1,3.4v6.8Z"/>
          <path class="st0" d="M102.8,281.1c-.4.7-.9,1.2-1.6,1.6-.6.4-1.4.5-2.2.5-1.4,0-2.5-.5-3.3-1.5-.8-1-1.2-2.3-1.2-4s.5-3.3,1.4-4.4c.9-1.1,2.2-1.7,3.7-1.7s1.4.1,2,.4,1,.7,1.3,1.3h0v-6.9h1.8v16.4h-1.8v-1.9h0ZM96.3,277.7c0,1.3.3,2.3.9,3,.6.7,1.4,1.1,2.4,1.1s1.8-.4,2.4-1.1c.6-.7.9-1.6.9-2.7v-1.6c0-.9-.3-1.7-.9-2.3-.6-.6-1.3-.9-2.2-.9s-1.9.4-2.6,1.2c-.6.8-.9,1.9-.9,3.3Z"/>
          <path class="st0" d="M109.2,269.3c-.4,0-.7-.1-.9-.4-.2-.2-.4-.5-.4-.9s.1-.7.4-.9.5-.4.9-.4.7.1.9.4c.2.2.4.5.4.9s-.1.7-.4.9c-.2.2-.5.4-.9.4ZM110,283h-1.8v-11.1h1.8v11.1Z"/>
          <path class="st0" d="M122.8,283h-1.8v-6.3c0-1.2-.2-2.1-.6-2.6-.4-.6-1.1-.9-1.9-.9s-1.6.3-2.2,1c-.6.7-.9,1.5-.9,2.5v6.3h-1.8v-11.1h1.8v1.8h0c.4-.7.9-1.2,1.5-1.6.6-.3,1.3-.5,2.1-.5,1.2,0,2.1.4,2.8,1.2.6.8,1,1.9,1,3.4v6.8Z"/>
          <path class="st0" d="M135.6,282.4c0,1.9-.5,3.4-1.5,4.4-1,1-2.3,1.4-4.1,1.4s-1.5,0-2.1-.2c-.7-.1-1.3-.4-2-.7l.6-1.4c.6.3,1.1.5,1.7.6.6.1,1.1.2,1.8.2,1.2,0,2.1-.3,2.8-1,.7-.7,1-1.7,1-3v-1.5h0c-.4.7-.9,1.2-1.6,1.6-.6.4-1.4.5-2.2.5-1.4,0-2.5-.5-3.3-1.5-.8-1-1.3-2.3-1.3-4s.5-3.3,1.4-4.4c.9-1.1,2.2-1.7,3.7-1.7s1.4.1,2,.4c.6.3,1,.7,1.4,1.3h0v-1.5h1.8v10.5ZM133.8,278v-1.6c0-.9-.3-1.6-.9-2.3s-1.3-.9-2.2-.9-1.9.4-2.6,1.1c-.6.7-.9,1.9-.9,3.4s.3,2.3.9,3,1.4,1,2.4,1,1.8-.4,2.4-1.1c.6-.7.9-1.6.9-2.7Z"/>
          <path class="st0" d="M158,283l-1.9-1.8c-.6.5-1.3,1-2.2,1.4-.9.4-1.9.6-3,.6s-2.8-.4-3.8-1.1c-1-.8-1.5-1.9-1.5-3.3s.3-2,.9-2.7c.6-.8,1.4-1.4,2.4-1.9-.5-.6-.9-1.2-1.2-1.7s-.3-1.1-.3-1.6c0-1.1.4-2,1.2-2.6.8-.6,1.7-.9,2.9-.9s2,.3,2.7.9c.7.6,1.1,1.4,1.1,2.4s-.2,1.6-.7,2.1c-.5.6-1.5,1.2-3,1.8l4.6,4.4c.5-.6.9-1.3,1.1-2,.2-.7.3-1.6.3-2.5h1.7c0,1.1-.2,2.1-.5,3-.3.9-.8,1.8-1.5,2.6l3.1,3h-2.4ZM155,280.2l-5.1-5c-.7.3-1.3.8-1.8,1.3-.5.5-.7,1.3-.7,2.2s.3,1.7,1,2.2,1.5.8,2.5.8,1.7-.2,2.4-.5c.7-.3,1.3-.7,1.8-1.1ZM150.6,273.5c1.2-.4,2-.9,2.4-1.3.4-.4.6-.9.6-1.6s-.2-1.2-.7-1.5c-.5-.3-.9-.5-1.4-.5-.7,0-1.3.2-1.7.6s-.6.9-.6,1.6.1,1,.4,1.4c.2.4.6.9,1.1,1.4Z"/>
          <path class="st0" d="M167.5,283l5.9-15.5h1.9l6,15.5h-2l-1.6-4.2h-6.7l-1.5,4.2h-2ZM171.6,277.2h5.5l-2.5-6.8c0-.1,0-.2-.1-.4,0-.2,0-.4-.1-.6h0c0,.2,0,.4-.1.6,0,.2,0,.3-.1.5l-2.5,6.8Z"/>
          <path class="st0" d="M185.4,283h-1.8v-15.5h1.8v15.5Z"/>
        </g>
      </g>
    </g>
  </g>
</svg>