<svg xmlns="http://www.w3.org/2000/svg" viewBox="350 400 510 410" fill="#360f11">
  <path d="M834.28,579.4c-21.09-93.1-85.4-156.73-176.58-166.69-56.53-6.13-114.76-15.33-170.97,6.64-91.58,35.86-130.72,155.71-106.81,248.21,20.69,79.9,94.14,130.49,169.52,134.92,193.5,11.33,300-100.17,284.84-223.08ZM683.04,771.73c-42.34,7.75-85.89,18.49-129.67,14.65-45.47-3.83-99.52-36.03-127.03-74.27-27.66-38.5-33.6-99.15-29.67-140.71,8.66-92.67,71.77-136.12,150.84-134.33,62.87,1.36,125.9-7.67,183.48,26.92,15.81,9.48,28.89,21.27,39.65,34.74,43.56,54.55,43.94,133.78,6.49,193.22-24.57,38.99-58.01,73.2-94.1,79.78Z"/>
  <path d="M706.37,575.07l-9.83-8.58-19.07-9.45-16.43-6-9.35-1.12c-17.99-2.15-39.46-7.4-42.7,1.07-.53,1.38.61,4.77,2.67,5.56l15.64,5.99c5.94,2.27,10.19,5.04,15.29,8.46,10.42,6.99,21.16,12.53,29.84,22.05,9.29,10.19,5.13,24.82-5.72,35.71-2.35,2.36-4.99,5.68-7.77,7.1l-18.49,9.4c-11.74,5.97-52.76,2.78-46.78-2.75,4.56-4.22,19.7-.64,26.76-7.85l7.68-7.85c3.48-3.55,3.61-9.65.53-13.63-1.94-2.5-5.24-2.89-7.55-3.9-12.67-5.53-16.49,5.9-23.73,4.3-2.13-.47-1.65-2-1.65-3.54l-.08-66.92-4.02-23.88-.24-34.99-.08-30.2,12.96.07-.45,22.08.18,17.54c.06,5.53,11.04,2.23,27.16,4.88l9.46,1.56c3.84.63,8.02.7,11.16,2.06l11.58,5.01c19.85,5.31,38.4,12.9,54.82,25.03l11.1,8.2,9.51,7.85c10.81,8.93,18.2,20.87,24.27,33.51,5.47,11.38,3.81,22.49.79,34.45l-4.82,19.05c-2.48,9.81-6.64,17.9-14.31,23.87l-14.54,11.32-18.02,11.99-15.43,8.63c-7.35,4.11-14.17,2.6-10.68-.05l10.76-8.18,10.44-9.01c8.87-7.66,20.82-31.19,21.44-38.48l1.58-18.46c2.41-28.12-12.18-31.65-23.9-41.9Z"/>
  <path d="M546.94,622.29c-.42,8.99,3.8,15.26,9.9,18.99,2.72,4.35,6.57,6.65,10.86,9.11,24.08,13.79,41.43,16.01,68.37,11.74,4.99-.79,9.4-1.6,13.51-4.62,17.92-2.45,41.28-21.67,46.39-36.27.43-1.22,4.94-1.34,6.95-.78l2.59,17.6-7.76,13.42c-3.15,5.44-9.77,8.83-15.23,12.24l-13.48,8.43-11.36,8.05c-10.11,7.17-22.71,9.02-35.13,9.96l-15.3,1.15-33.64-.48-16.16-1.66-22.84-4.1c-3.3-.59-4.91-.98-8.06-2.59l-23.06-11.74c-7.9-4.02-14.56-8.68-25.47-4.64-1.44,5.54,1.28,7.97,4.53,10.61l16.79,13.62c3.08,2.49,5.77,4.32,10.17,5.22-2.07,3.87-5.44,4.02-8.93,1.9l-14.79-8.99c-9.44-5.74-30.92-27.97-36.94-37.7l-2.85-8.29-2.15-10.66c-5.17-25.6,1.36-32.55,14.45-49.19l8.49-10.79,8.61-10.65,8.52-6.68,13.24-8.14c8.21-5.05,17.89-8.62,27.27-9.18-1.04,1.93-1.09,2.89-.71,4.42-12.66,6.84-22.99,18.62-31.52,29.8l-12.48,16.36c-4.44,14.69-6.75,24.89.95,35.95l7.36,10.59,9.08,12.48c4.46,6.13,9.65,10.93,16.85,13.72,2.65,5.22,7.77,6.83,12.14,9.61,17.21,10.92,29.34,9.83,44.03,11.29l10.99,1.09,15.28-1.18c3.05-.24,6.36-2.92,5.33-5.63-1.4-3.67-4.86-5.82-7.73-6.83l-18.01-6.36-12.99-6.1-23.52-17.33c-6.2-4.57-6.4-18.21-1.59-26.91l6.83-12.36,8.65-8.18,8.32-6.96c2.33-1.95,16.04-5.85,24.58-5.23l-.14,13.26c-.05,5.12-6.79,9.02-8.23,17.79-.86,5.2,1.77,8.48,6.11,10.62,6.62,3.25,9.71,5.87,20.08-.21,6.57-3.85,12.04-3.13,10.52-.65l-1.57,2.55c-7.54,12.27-39.82,6.06-45.84-4.94-1.75-3.19-5.06-4.66-8.85-5.18-5.45-.75-11.11,2.42-11.45,9.62Z"/>
  <path d="M539.38,581.18c-24.17,11.86-22.92,26.33-30.84,23.81-3.38-1.08-3.13-21.92,3.84-29l12.72-12.93c7.34-7.46,17.63-10.12,27.68-12.8l20.7-5.53c4.45-1.19,7.65-2.82,13.27-2.05l-.16,9.42c-.06,3.76.71,8.06-.93,11.18-1.12,2.12-12.8,1.47-30.24,10.03l-16.03,7.87Z"/>
  <path d="M616.2,755.84l-1.84,13.56c-4.47,1.15-8.08.72-13.02-.17l1.34-13.44c.63-6.34-1.66-10.42-1.99-16.37l-1.15-21.01,15.47-.48c-1.08,3.28-1.02,6.24-.82,10.09l.67,12.34c.27,4.92,2.13,9.56,1.33,15.48Z"/>
</svg>
